<?xml version="1.0" encoding="UTF-8"?>
<svg version="1.1" xmlns="http://www.w3.org/2000/svg" width="3000" height="2000">
<path d="M0 0 C990 0 1980 0 3000 0 C3000 313.83 3000 627.66 3000 951 C2991.08121137 950.18920103 2983.08704954 948.92149585 2974.4375 946.9375 C2973.76525391 946.78382965 2973.09300781 946.6301593 2972.40039062 946.47183228 C2929.97311029 936.71663188 2895.28769664 919.96798563 2862 892 C2860.16866125 890.49756548 2858.33528416 888.99761249 2856.5 887.5 C2855.13488281 886.38238281 2855.13488281 886.38238281 2853.7421875 885.2421875 C2851.93675589 883.7659514 2850.12950859 882.29193264 2848.3203125 880.8203125 C2843.33772833 876.7620338 2838.39783092 872.65977201 2833.5 868.5 C2828.72721001 864.44696067 2823.91434163 860.44975784 2819.05859375 856.49609375 C2816.02645597 854.0215905 2813.00544401 851.53410477 2809.98657227 849.04345703 C2792.86192388 834.91682401 2775.60495636 820.99581891 2757.97021484 807.50927734 C2755.68161693 805.75610358 2753.39772692 803.99686181 2751.11328125 802.23828125 C2740.95951281 794.44016459 2730.71597911 786.82978766 2720.19824219 779.53027344 C2717.83650241 777.8861836 2715.48403732 776.22940187 2713.1328125 774.5703125 C2702.2047761 766.86711614 2691.19089771 759.31636511 2680 752 C2678.66219482 751.12335693 2678.66219482 751.12335693 2677.29736328 750.22900391 C2643.45397356 728.11999516 2608.37868858 708.04515217 2572.35791016 689.71044922 C2569.33260955 688.16942435 2566.31246688 686.61875515 2563.29296875 685.06640625 C2485.68944895 645.43500346 2396.15903405 612.8357275 2306 607 C2304.72552002 606.91540527 2304.72552002 606.91540527 2303.42529297 606.82910156 C2241.09199385 602.80144813 2180.76174252 611.69392244 2121 629 C2120.30904236 629.20002625 2119.61808472 629.40005249 2118.90618896 629.60614014 C2053.89901783 648.51260824 1990.72578775 676.45028336 1931.69873047 709.49023438 C1928.76350868 711.13230164 1925.82141833 712.7616606 1922.87890625 714.390625 C1911.09280312 720.9331223 1899.41783141 727.63822406 1887.8359375 734.53515625 C1883.62377888 737.042532 1879.3984431 739.52648204 1875.1640625 741.99609375 C1859.43159149 751.17441718 1843.80832573 760.51387279 1828.26464844 770.00830078 C1825.17190379 771.8951248 1822.07520819 773.77523029 1818.9765625 775.65234375 C1806.2618635 783.35874291 1793.63235518 791.19421598 1781.03808594 799.09570312 C1776.94319526 801.66241377 1772.84321789 804.22094179 1768.7434082 806.77978516 C1757.47205421 813.81616449 1746.22198361 820.88515876 1735 828 C1734.13165527 828.55010742 1733.26331055 829.10021484 1732.36865234 829.66699219 C1719.18650839 838.0215735 1706.06517274 846.46378731 1693 855 C1691.43330566 856.0219043 1691.43330566 856.0219043 1689.83496094 857.06445312 C1654.26664503 880.26483703 1618.8939212 903.7946032 1584 928 C1583.15630859 928.58523438 1582.31261719 929.17046875 1581.44335938 929.7734375 C1567.93782385 939.14731442 1554.45553251 948.55448824 1541 958 C1540.26587891 958.5151416 1539.53175781 959.0302832 1538.77539062 959.56103516 C1528.54544898 966.74459427 1518.38849777 974.02467786 1508.26611328 981.35888672 C1505.2618742 983.53454876 1502.25474227 985.70619019 1499.24731445 987.87744141 C1497.74953274 988.95883817 1496.25197396 990.04054377 1494.75463867 991.12255859 C1490.98290738 993.84797564 1487.20870258 996.56984601 1483.4296875 999.28515625 C1475.59354658 1004.92050152 1467.80409093 1010.60722594 1460.09790039 1016.41918945 C1455.03239644 1020.23713037 1449.92765069 1023.99892459 1444.8125 1027.75 C1437.02314435 1033.46936226 1429.32038151 1039.29590169 1421.64379883 1045.16552734 C1416.28337816 1049.26376318 1410.90499715 1053.33575335 1405.5 1057.375 C1398.61783123 1062.52118801 1391.80051227 1067.74660427 1385 1073 C1382.93767969 1074.58356738 1380.8751761 1076.16689609 1378.8125 1077.75 C1365.80798439 1087.74717142 1352.88693866 1097.85191306 1340 1108 C1330.90200109 1115.16440781 1321.77891256 1122.29551258 1312.6328125 1129.3984375 C1309.60242275 1131.75229878 1306.57651092 1134.11171527 1303.5546875 1136.4765625 C1293.3138157 1144.48339117 1282.95961733 1152.32624877 1272.54101562 1160.10009766 C1269.99688153 1162.00233166 1267.45850037 1163.91198596 1264.921875 1165.82421875 C1249.26427759 1177.62221916 1233.39328669 1189.10380418 1217.34033203 1200.35742188 C1215.72003604 1201.49463775 1214.10132437 1202.63411306 1212.48388672 1203.77539062 C1142.5592804 1253.10355242 1067.71299912 1297.56322263 920 1357 C918.9493335 1357.3622467 918.9493335 1357.3622467 917.87744141 1357.73181152 C833.91092963 1386.5861317 745.68597109 1401.57740167 636.19110107 1408.8999939 C634.65607509 1408.97005546 633.12129278 1409.04556992 631.58673096 1409.12515259 C610.07275616 1410.23746182 588.54922626 1410.18747717 567.01269531 1410.18530273 C562.78641421 1410.18522209 558.56024295 1410.19207958 554.33398438 1410.20581055 C516.92191215 1410.32525994 479.60156205 1409.40403272 442.3125 1406.1875 C441.3123587 1406.10318726 440.31221741 1406.01887451 439.2817688 1405.93200684 C364.27252425 1399.57540286 289.77922756 1385.89290157 218 1363 C217.31973755 1362.78341736 216.6394751 1362.56683472 215.93859863 1362.34368896 C174.22494557 1349.03217196 133.77507262 1333.10975816 94.14404297 1314.47802734 C92.08219149 1313.50874261 90.01876359 1312.54280265 87.95361328 1311.58056641 C57.64541663 1297.44591221 28.66118206 1281.19670924 0 1264 C0 846.88 0 429.76 0 0 Z " fill="#8079DA" transform="translate(0,0)"/>
<path d="M0 0 C1.6874087 -0.00323402 3.37481715 -0.00659945 5.06222534 -0.01008606 C8.57648362 -0.01601254 12.09071756 -0.01793303 15.60498047 -0.01733398 C19.12977288 -0.01725328 22.65443378 -0.02411812 26.17919922 -0.0378418 C56.9962679 -0.15572689 87.46108801 1.05893226 118.1171875 4.41796875 C119.59567673 4.57753555 119.59567673 4.57753555 121.10403442 4.74032593 C139.38544835 6.72890741 157.48449725 9.36193615 175.55755615 12.74798584 C177.85601098 13.17756097 180.1556755 13.60015939 182.45556641 14.02197266 C224.99378352 21.86771056 266.70562737 32.71304269 307.8046875 46.16796875 C309.22410764 46.62959865 310.64354071 47.09118883 312.06298828 47.55273438 C343.60227174 57.84950875 374.67167558 69.90964947 404.80615234 83.78857422 C407.78537055 85.15908251 410.77227044 86.51134661 413.76171875 87.859375 C436.23786333 98.02614057 458.44576956 108.61203005 480 120.62304688 C482.98260567 122.26597242 485.98388753 123.86947675 488.9921875 125.46484375 C504.88895103 133.89897668 520.4063883 142.85736923 535.8046875 152.16796875 C536.8555957 152.79896484 537.90650391 153.42996094 538.98925781 154.08007812 C557.39395278 165.14238311 575.25666297 176.95884385 593.04443359 188.9786377 C594.63826695 190.05552524 596.23313596 191.13087958 597.828125 192.20605469 C609.32282054 199.96328874 620.61359368 207.97965507 631.8046875 216.16796875 C632.58344238 216.73660645 633.36219727 217.30524414 634.16455078 217.89111328 C658.79551342 235.89085612 682.99928353 254.50259581 706.22729492 274.28955078 C709.51078332 277.08446426 712.82912387 279.82896287 716.1796875 282.54296875 C726.19455152 290.70376903 735.87875165 299.2540055 745.40234375 307.98046875 C747.47149302 309.86457215 749.56322676 311.71251622 751.6796875 313.54296875 C756.35812268 317.61034301 760.88828688 321.83617312 765.43359375 326.05078125 C767.59813358 328.05675813 769.77151049 330.05206206 771.95703125 332.03515625 C777.5434784 337.10790711 782.99480785 342.27128401 788.2578125 347.68359375 C792.61768905 351.93647947 797.1508883 355.95832829 802.03583527 359.60131073 C813.48390059 368.20740863 826.01443124 378.0924665 828.89476132 392.81790519 C830.58361651 404.79602463 830.0904186 416.94755595 829.64371777 428.99860477 C829.46622622 434.6122264 829.45204835 440.22647385 829.41900635 445.84246826 C829.33266692 456.43133873 829.10392654 467.01191787 828.82122064 477.59716868 C828.50601818 489.66654004 828.35375932 501.73635128 828.21374846 513.80882692 C827.92265703 538.59976939 827.43159493 563.38340074 826.8046875 588.16796875 C825.04790036 588.01624781 823.29130992 587.86224815 821.5348053 587.70729065 C820.55658341 587.62177728 819.57836153 587.5362639 818.57049656 587.44815922 C812.69733766 586.85317847 806.98732524 585.42326332 801.2421875 584.10546875 C800.56994141 583.9517984 799.89769531 583.79812805 799.20507812 583.63980103 C756.77779779 573.88460063 722.09238414 557.13595438 688.8046875 529.16796875 C686.97334875 527.66553423 685.13997166 526.16558124 683.3046875 524.66796875 C681.93957031 523.55035156 681.93957031 523.55035156 680.546875 522.41015625 C678.74144339 520.93392015 676.93419609 519.45990139 675.125 517.98828125 C670.14241583 513.93000255 665.20251842 509.82774076 660.3046875 505.66796875 C655.53189751 501.61492942 650.71902913 497.61772659 645.86328125 493.6640625 C642.83114347 491.18955925 639.81013151 488.70207352 636.79125977 486.21142578 C619.66661138 472.08479276 602.40964386 458.16378766 584.77490234 444.67724609 C582.48630443 442.92407233 580.20241442 441.16483056 577.91796875 439.40625 C567.76420031 431.60813334 557.52066661 423.99775641 547.00292969 416.69824219 C544.64118991 415.05415235 542.28872482 413.39737062 539.9375 411.73828125 C529.0094636 404.03508489 517.99558521 396.48433386 506.8046875 389.16796875 C505.91281738 388.58354004 505.02094727 387.99911133 504.10205078 387.39697266 C470.25866106 365.28796391 435.18337608 345.21312092 399.16259766 326.87841797 C396.13729705 325.3373931 393.11715438 323.7867239 390.09765625 322.234375 C312.49413645 282.60297221 222.96372155 250.00369625 132.8046875 244.16796875 C131.53020752 244.08337402 131.53020752 244.08337402 130.22998047 243.99707031 C67.89668135 239.96941688 7.56643002 248.86189119 -52.1953125 266.16796875 C-52.88627014 266.367995 -53.57722778 266.56802124 -54.28912354 266.77410889 C-119.29629467 285.68057699 -182.46952475 313.61825211 -241.49658203 346.65820312 C-244.43180382 348.30027039 -247.37389417 349.92962935 -250.31640625 351.55859375 C-262.10250938 358.10109105 -273.77748109 364.80619281 -285.359375 371.703125 C-289.57153362 374.21050075 -293.7968694 376.69445079 -298.03125 379.1640625 C-313.76372101 388.34238593 -329.38698677 397.68184154 -344.93066406 407.17626953 C-348.02340871 409.06309355 -351.12010431 410.94319904 -354.21875 412.8203125 C-366.933449 420.52671166 -379.56295732 428.36218473 -392.15722656 436.26367188 C-396.25211724 438.83038252 -400.35209461 441.38891054 -404.4519043 443.94775391 C-415.72325829 450.98413324 -426.97332889 458.05312751 -438.1953125 465.16796875 C-439.49782959 465.99312988 -439.49782959 465.99312988 -440.82666016 466.83496094 C-454.00880411 475.18954225 -467.13013976 483.63175606 -480.1953125 492.16796875 C-481.76200684 493.18987305 -481.76200684 493.18987305 -483.36035156 494.23242188 C-518.92866747 517.43280578 -554.3013913 540.96257195 -589.1953125 565.16796875 C-590.03900391 565.75320313 -590.88269531 566.3384375 -591.75195312 566.94140625 C-605.25748865 576.31528317 -618.73977999 585.72245699 -632.1953125 595.16796875 C-632.92943359 595.68311035 -633.66355469 596.19825195 -634.41992188 596.72900391 C-644.64986352 603.91256302 -654.80681473 611.19264661 -664.92919922 618.52685547 C-667.9334383 620.70251751 -670.94057023 622.87415894 -673.94799805 625.04541016 C-675.44577976 626.12680692 -676.94333854 627.20851252 -678.44067383 628.29052734 C-682.21240512 631.01594439 -685.98660992 633.73781476 -689.765625 636.453125 C-697.60176592 642.08847027 -705.39122157 647.77519469 -713.09741211 653.5871582 C-718.16291606 657.40509912 -723.26766181 661.16689334 -728.3828125 664.91796875 C-736.17216815 670.63733101 -743.87493099 676.46387044 -751.55151367 682.33349609 C-756.91193434 686.43173193 -762.29031535 690.5037221 -767.6953125 694.54296875 C-774.57748127 699.68915676 -781.39480023 704.91457302 -788.1953125 710.16796875 C-790.25763281 711.75153613 -792.3201364 713.33486484 -794.3828125 714.91796875 C-807.38732811 724.91514017 -820.30837384 735.01988181 -833.1953125 745.16796875 C-842.29331141 752.33237656 -851.41639994 759.46348133 -860.5625 766.56640625 C-863.59288975 768.92026753 -866.61880158 771.27968402 -869.640625 773.64453125 C-879.8814968 781.65135992 -890.23569517 789.49421752 -900.65429688 797.26806641 C-903.19843097 799.17030041 -905.73681213 801.07995471 -908.2734375 802.9921875 C-923.93103491 814.79018791 -939.80202581 826.27177293 -955.85498047 837.52539062 C-957.47527646 838.6626065 -959.09398813 839.80208181 -960.71142578 840.94335938 C-1030.6360321 890.27152117 -1105.48231338 934.73119138 -1253.1953125 994.16796875 C-1253.89575684 994.40946655 -1254.59620117 994.65096436 -1255.31787109 994.89978027 C-1339.28438287 1023.75410045 -1427.50934141 1038.74537042 -1537.00421143 1046.06796265 C-1538.53923741 1046.13802421 -1540.07401972 1046.21353867 -1541.60858154 1046.29312134 C-1563.12255634 1047.40543057 -1584.64608624 1047.35544592 -1606.18261719 1047.35327148 C-1610.40889829 1047.35319084 -1614.63506955 1047.36004833 -1618.86132812 1047.3737793 C-1656.27340035 1047.49322869 -1693.59375045 1046.57200147 -1730.8828125 1043.35546875 C-1731.8829538 1043.27115601 -1732.88309509 1043.18684326 -1733.9135437 1043.09997559 C-1808.92278825 1036.74337161 -1883.41608494 1023.06087032 -1955.1953125 1000.16796875 C-1956.21570618 999.84309479 -1956.21570618 999.84309479 -1957.25671387 999.51165771 C-1998.97036693 986.20014071 -2039.42023988 970.27772691 -2079.05126953 951.64599609 C-2081.11312101 950.67671136 -2083.17654891 949.7107714 -2085.24169922 948.74853516 C-2111.97109587 936.28290472 -2137.90154498 922.32808523 -2163.1953125 907.16796875 C-2163.99445552 906.80393649 -2164.79359854 906.43990422 -2165.61695802 906.06484067 C-2172.62552339 902.57076034 -2172.62552339 902.57076034 -2174.11843801 898.89528108 C-2174.45980159 896.05494143 -2174.48100114 893.35985558 -2174.39785767 890.49990845 C-2174.40640191 889.42489118 -2174.41494616 888.34987391 -2174.42374933 887.24228036 C-2174.44022785 883.6385048 -2174.38522837 880.03938166 -2174.33056641 876.43603516 C-2174.32774577 873.8539033 -2174.3293288 871.27176342 -2174.33499146 868.68963623 C-2174.34023067 863.13001944 -2174.30890637 857.57157778 -2174.25261307 852.01225662 C-2174.17127802 843.97466431 -2174.14529261 835.93763918 -2174.13273315 827.89967994 C-2174.11085645 814.85841644 -2174.04433454 801.81777907 -2173.94970703 788.77685547 C-2173.85789111 776.11022063 -2173.78711995 763.44375597 -2173.74462891 750.77685547 C-2173.74200167 749.99583897 -2173.73937444 749.21482247 -2173.73666759 748.4101388 C-2173.72361704 744.49193701 -2173.71098 740.57373401 -2173.69854856 736.65553021 C-2173.59491132 704.1592206 -2173.4188074 671.6636785 -2173.1953125 639.16796875 C-2171.74930668 639.96607661 -2170.30393184 640.76532776 -2168.85882568 641.56506348 C-2167.65138514 642.23250454 -2167.65138514 642.23250454 -2166.41955185 642.91342926 C-2164.02419117 644.26448645 -2161.73146956 645.71034553 -2159.4609375 647.26171875 C-2158.65084229 647.81029541 -2157.84074707 648.35887207 -2157.00610352 648.92407227 C-2155.73851196 649.78730103 -2155.73851196 649.78730103 -2154.4453125 650.66796875 C-2121.0539354 673.14527124 -2085.87360967 692.99445948 -2050.01757812 711.23895264 C-2048.1545572 712.18874636 -2046.293843 713.1429348 -2044.43359375 714.09814453 C-1971.19657488 751.6688382 -1893.02111167 779.54086856 -1740.24810791 807.94793701 C-1738.21441741 808.16592096 -1736.18219323 808.39485676 -1734.14990234 808.62548828 C-1687.53730445 813.81559317 -1637.74782749 814.01645882 -1591.1953125 808.16796875 C-1589.76353697 807.99439898 -1588.33173287 807.82106474 -1586.89990234 807.64794922 C-1503.31192404 797.39063032 -1424.64576636 770.33713961 -1344.06488037 731.08648682 C-1342.75630177 730.44358259 -1341.44739571 729.80134461 -1340.13824463 729.15960693 C-1321.73602732 720.13724849 -1303.54533413 710.93413959 -1285.8046875 700.65625 C-1281.35512641 698.11840153 -1276.83273617 695.71660551 -1272.3203125 693.29296875 C-1261.05116427 687.20422241 -1250.10325669 680.61157437 -1239.15820312 673.96240234 C-1236.39078651 672.28635487 -1233.61586723 670.62393968 -1230.8359375 668.96875 C-1220.33907354 662.71869345 -1209.9621108 656.30398197 -1199.66113281 649.73632812 C-1197.13275798 648.1281816 -1194.59828676 646.53002363 -1192.0625 644.93359375 C-1178.3288001 636.2687034 -1164.80642444 627.30823627 -1151.32202148 618.26269531 C-1148.23027569 616.1913922 -1145.13334152 614.12806174 -1142.03515625 612.06640625 C-1136.62986179 608.46435201 -1131.24863728 604.82852063 -1125.8828125 601.16796875 C-1124.95057861 600.53205811 -1124.01834473 599.89614746 -1123.05786133 599.2409668 C-1102.00119168 584.85227183 -1081.1219505 570.2101808 -1060.46484375 555.25390625 C-1056.71915837 552.54326776 -1052.96093416 549.8508168 -1049.1953125 547.16796875 C-1042.39009539 542.31726295 -1035.61514656 537.42511536 -1028.84375 532.52734375 C-1025.76912216 530.30369438 -1022.69090764 528.08516376 -1019.609375 525.87109375 C-1011.77980355 520.241199 -1003.99900888 514.55728147 -996.29760742 508.75317383 C-991.1831216 504.90048343 -986.03990079 501.08842183 -980.8828125 497.29296875 C-979.68773071 496.41306274 -979.68773071 496.41306274 -978.46850586 495.51538086 C-974.48341521 492.58281944 -970.4952535 489.65450822 -966.50390625 486.73046875 C-958.14989188 480.60273817 -949.85752927 474.40592351 -941.6328125 468.10546875 C-934.5061962 462.6462019 -927.30340669 457.32083023 -920.00146484 452.09912109 C-913.25932592 447.25826832 -906.66930979 442.22833164 -900.08203125 437.1796875 C-893.56889549 432.19456013 -886.98843933 427.31094156 -880.37060547 422.46606445 C-874.31774828 418.02322439 -868.34298513 413.484174 -862.3828125 408.91796875 C-856.16077198 404.15371807 -849.9061976 399.46753013 -843.49951172 394.95507812 C-838.43024774 391.37119883 -833.46738908 387.65172074 -828.5078125 383.91796875 C-815.09591963 373.82374795 -801.58778576 363.86885397 -787.96435547 354.06201172 C-782.51401088 350.13391044 -777.09845857 346.1606882 -771.6953125 342.16796875 C-763.31756189 335.9789151 -754.88723286 329.86609356 -746.43359375 323.78125 C-744.17465043 322.15307619 -741.91888589 320.5205925 -739.6640625 318.88671875 C-724.63935379 308.00290714 -709.46440231 297.33862362 -694.2578125 286.7109375 C-691.02358119 284.44981047 -687.79433388 282.18190844 -684.5703125 279.90625 C-607.68653307 225.71425664 -527.95939407 174.39838116 -444.89428711 130.16088867 C-442.06280168 128.64334923 -439.24782187 127.09746589 -436.43579102 125.54418945 C-422.08863794 117.63128306 -407.54652892 110.16315031 -392.8828125 102.85546875 C-391.6891587 102.25975433 -390.4955146 101.66402047 -389.30187988 101.06826782 C-370.45332303 91.66723913 -351.54316647 82.49766858 -332.1953125 74.16796875 C-331.54371155 73.88600647 -330.8921106 73.60404419 -330.22076416 73.3135376 C-257.48948126 41.86425984 -180.61632734 20.07722951 -102.25280762 8.47399902 C-100.27756393 8.18020277 -98.30330703 7.87979515 -96.32910156 7.57910156 C-82.11400082 5.42256126 -67.88874383 3.74933187 -53.5703125 2.48046875 C-52.544254 2.38906113 -52.544254 2.38906113 -51.49746704 2.29580688 C-34.34236356 0.78899048 -17.21939847 0.0080196 0 0 Z " fill="#9591EF" transform="translate(2173.1953125,362.83203125)"/>
<path d="M0 0 C0.79910042 0.00026688 1.59820084 0.00053375 2.42151642 0.00080872 C26.30624183 0.01081873 50.12670406 0.1160329 73.9375 2.1875 C75.23463928 2.29992035 75.23463928 2.29992035 76.5579834 2.41461182 C115.04555792 5.77851028 115.04555792 5.77851028 133.66796875 8.3515625 C134.89327049 8.52069908 134.89327049 8.52069908 136.14332581 8.69325256 C153.38816572 11.08977072 170.56931718 13.68894898 187.6875 16.875 C188.46298187 17.01907288 189.23846375 17.16314575 190.03744507 17.31158447 C212.17202067 21.44515158 212.17202067 21.44515158 222.9375 24.1875 C224.4364998 24.52530277 225.93653874 24.85852219 227.4375 25.1875 C230.28363832 25.81131114 233.11183246 26.47730204 235.9375 27.1875 C237.44396677 27.56137383 238.95048022 27.93505961 240.45703125 28.30859375 C242.22136379 28.74735714 243.98568637 29.18616057 245.75 29.625 C246.62720703 29.84220703 247.50441406 30.05941406 248.40820312 30.28320312 C253.28050507 31.49672335 258.11455856 32.78812406 262.9375 34.1875 C264.91746781 34.7413772 266.89799667 35.29325049 268.87890625 35.84375 C269.95720703 36.14410156 271.03550781 36.44445312 272.14648438 36.75390625 C274.38578697 37.3773114 276.62537166 37.99970409 278.86523438 38.62109375 C279.94224609 38.92144531 281.01925781 39.22179687 282.12890625 39.53125 C283.10029541 39.80130859 284.07168457 40.07136719 285.07250977 40.34960938 C288.05522903 41.22193085 290.99389155 42.19189798 293.9375 43.1875 C295.58088154 43.69550048 297.22662988 44.19592771 298.875 44.6875 C299.66777344 44.9246875 300.46054688 45.161875 301.27734375 45.40625 C303.25666417 45.98754821 305.24210553 46.54808492 307.23046875 47.09765625 C311.31666024 48.29897071 315.30590703 49.68484216 319.3125 51.125 C323.81952374 52.73323527 328.32191436 54.33824508 332.875 55.8125 C336.81531349 57.10316145 340.63010725 58.65485851 344.46875 60.21875 C346.77337551 61.12309672 349.08282125 61.92471674 351.4375 62.6875 C357.48844209 64.65459071 363.35043677 67.06809764 369.1875 69.59375 C372.56265866 71.04504101 375.97246926 72.39482885 379.39257812 73.73608398 C391.38233654 78.44997508 403.16569745 83.59621055 414.92919922 88.84570312 C417.75385722 90.10558954 420.58162154 91.35822274 423.41015625 92.609375 C433.00757795 96.87086255 442.45757744 101.34446331 451.8125 106.11328125 C454.13834177 107.28902847 456.47424679 108.442891 458.8125 109.59375 C467.51805071 113.88733228 476.1018282 118.30245349 484.52734375 123.12451172 C489.57110803 126.00796806 494.69531224 128.67981884 499.9375 131.1875 C499.9375 131.8475 499.9375 132.5075 499.9375 133.1875 C501.01898315 133.35463501 501.01898315 133.35463501 502.12231445 133.52514648 C505.12089265 134.2306484 507.2973685 135.28180162 509.98046875 136.78515625 C510.95822266 137.33091309 511.93597656 137.87666992 512.94335938 138.43896484 C513.99330078 139.03660645 515.04324219 139.63424805 516.125 140.25 C517.22779297 140.87342285 518.33058594 141.4968457 519.46679688 142.13916016 C531.81601102 149.17513715 543.90899463 156.6179623 555.9375 164.1875 C557.00033203 164.85571777 558.06316406 165.52393555 559.15820312 166.21240234 C579.84471844 179.25348956 600.0449973 192.96804437 619.9375 207.1875 C621.05898438 207.98800781 621.05898438 207.98800781 622.203125 208.8046875 C631.92708929 215.75503781 641.50427907 222.84787658 650.9375 230.1875 C652.50803498 231.38503292 654.07857826 232.58255542 655.64990234 233.77905273 C662.62112626 239.09841356 669.42862565 244.60838177 676.21875 250.15625 C679.16861391 252.56599799 682.13930078 254.94720581 685.125 257.3125 C689.50725113 260.80506591 693.78137506 264.41612071 698.04711914 268.04907227 C701.51441708 270.9982389 705.02063094 273.89023126 708.5625 276.75 C713.32557218 280.62562933 717.87114249 284.69984289 722.390625 288.85546875 C724.52691749 290.81155252 726.68530657 292.72937697 728.875 294.625 C732.77498382 298.01455649 736.57992352 301.50492523 740.37915039 305.00634766 C743.49297363 307.8738164 746.63965499 310.69766814 749.8125 313.5 C754.69964087 317.87477933 759.29396668 322.51499792 763.90576172 327.17504883 C766.83424815 330.12311177 769.76181194 333.00247619 772.9375 335.6875 C776.81410949 338.97801302 780.40097749 342.53728332 784 346.125 C784.57814453 346.69863281 785.15628906 347.27226563 785.75195312 347.86328125 C788.72036124 350.84179745 791.56667316 353.87763076 794.30859375 357.06640625 C798.29171497 361.67239325 802.59748213 365.92030122 806.9375 370.1875 C811.9340994 375.10026384 816.79236895 380.04467585 821.36035156 385.36083984 C823.61303073 387.96990262 825.96304784 390.47769025 828.3125 393 C831.80517491 396.77491127 835.15260007 400.61308285 838.375 404.625 C841.7410114 408.80993367 845.26977055 412.77011644 848.9375 416.6875 C854.20255227 422.32321459 859.11380041 428.167648 863.9375 434.1875 C865.53488486 436.14210595 867.13655179 438.0931252 868.73974609 440.04296875 C869.87359182 441.43345428 870.99763548 442.83198932 872.11181641 444.23828125 C874.55552746 447.32202908 876.93636973 450.18640559 879.76953125 452.9296875 C886.75745581 460.17071799 886.60792657 466.65405075 886.5 476.4375 C886.38418806 480.6932434 886.2027218 484.93851082 885.9375 489.1875 C881.28164813 485.30161037 876.88261789 481.26179899 872.62890625 476.94140625 C872.05849106 476.36720444 871.48807587 475.79300262 870.90037537 475.20140076 C868.49374785 472.77864554 866.09318571 470.34991462 863.69213867 467.92163086 C854.90150567 459.02133719 854.90150567 459.02133719 845.61694336 450.64428711 C842.91395394 448.29965303 840.43393667 445.74792614 837.9375 443.1875 C834.1662545 439.36989875 830.35016046 435.70645209 826.26171875 432.2265625 C822.91489763 429.29035977 819.68351059 426.23429123 816.4375 423.1875 C811.35054002 418.42202995 806.24165777 413.71163457 800.9375 409.1875 C799.9164719 408.31272728 798.89565929 407.43770301 797.875 406.5625 C796.10704381 405.04671311 794.33867032 403.53142973 792.56884766 402.01782227 C788.75194518 398.75175557 784.95309894 395.46592805 781.16479492 392.16674805 C775.49243982 387.22920268 769.78338212 382.35738077 763.9375 377.625 C761.59336627 375.72039135 759.26198955 373.80336867 756.9375 371.875 C748.97299705 365.2713659 740.94565258 358.80643069 732.70849609 352.54492188 C730.72873939 351.02749049 728.76390119 349.4920171 726.80078125 347.953125 C715.99721333 339.48546366 705.03363254 331.26736645 693.9375 323.1875 C693.20595703 322.65302246 692.47441406 322.11854492 691.72070312 321.56787109 C670.56061254 306.11606191 648.967053 291.37185311 626.9375 277.1875 C626.0820459 276.63610352 625.2265918 276.08470703 624.34521484 275.51660156 C593.4019117 255.62763109 561.47164209 237.33208574 528.9375 220.1875 C527.8119873 219.59050293 526.68647461 218.99350586 525.52685547 218.37841797 C509.20307857 209.72641467 492.6817375 201.64250972 475.84051514 194.046875 C473.88339333 193.16306619 471.92815727 192.27518216 469.97314453 191.38671875 C400.58005325 159.89964849 327.73493826 135.89548117 252.9375 121.1875 C252.07938721 121.01863281 251.22127441 120.84976563 250.3371582 120.67578125 C222.51582162 115.23186908 194.67820547 111.22569245 166.46875 108.44006348 C163.90016934 108.18377521 161.33293681 107.91613591 158.765625 107.64746094 C134.75671876 105.17902449 110.80238361 104.99944034 86.69116211 105.00219727 C83.15953428 105.00227834 79.62803671 104.99535088 76.09643555 104.98168945 C54.60330959 104.89988009 33.36282974 105.31723379 11.9375 107.1875 C10.41181303 107.31054206 8.88602798 107.43237971 7.36010742 107.55249023 C-13.2351982 109.23452167 -33.65037443 112.02379281 -54.0625 115.1875 C-55.28582031 115.37538086 -56.50914062 115.56326172 -57.76953125 115.75683594 C-141.95233634 128.88991537 -224.21695431 155.66989434 -301.0625 192.1875 C-303.03122717 193.11593383 -304.99997631 194.04432108 -306.96875 194.97265625 C-333.47736257 207.53416676 -359.90796282 220.46050726 -385.51660156 234.77783203 C-388.28763407 236.31215709 -391.07491229 237.81328951 -393.8671875 239.30859375 C-407.02770008 246.35670131 -419.97778446 253.70099759 -432.83447266 261.28808594 C-436.25203982 263.29902774 -439.67771526 265.29556086 -443.10546875 267.2890625 C-459.24322232 276.68291095 -475.20873754 286.31949236 -491.0625 296.1875 C-492.6393457 297.16662354 -492.6393457 297.16662354 -494.24804688 298.16552734 C-506.11690431 305.5370008 -517.94494488 312.96382478 -529.64160156 320.60595703 C-532.4755364 322.45733157 -535.31209422 324.30466122 -538.1484375 326.15234375 C-560.28669597 340.58698114 -582.23880028 355.28127032 -604.0625 370.1875 C-604.83464844 370.71472656 -605.60679688 371.24195313 -606.40234375 371.78515625 C-617.68513356 379.49611316 -628.88038075 387.33149415 -640.0625 395.1875 C-641.17890869 395.97108887 -641.17890869 395.97108887 -642.31787109 396.77050781 C-651.86376714 403.47354161 -661.3450552 410.26120746 -670.79296875 417.1015625 C-674.53865505 419.81220166 -678.29695225 422.50454723 -682.0625 425.1875 C-694.43181029 434.00888457 -706.73178007 442.92105337 -718.94921875 451.95166016 C-724.3558053 455.94344937 -729.79349495 459.8892958 -735.25 463.8125 C-741.54118851 468.33907855 -747.77113903 472.93781861 -753.96044922 477.60253906 C-759.07491838 481.45506171 -764.21800331 485.26711433 -769.375 489.0625 C-770.57008179 489.94240601 -770.57008179 489.94240601 -771.78930664 490.84008789 C-775.77439729 493.77264931 -779.762559 496.70096053 -783.75390625 499.625 C-792.98539815 506.39610993 -802.13164561 513.26687286 -811.22387695 520.22387695 C-817.75322807 525.21166773 -824.34307673 530.10992294 -830.96875 534.96875 C-836.69530006 539.17076094 -842.38618983 543.41790368 -848.0625 547.6875 C-854.51322482 552.53959408 -860.99073172 557.35176273 -867.5 562.125 C-874.35263478 567.15117241 -881.12835998 572.2700412 -887.875 577.4375 C-894.09710597 582.20166901 -900.35161153 586.88793625 -906.75830078 591.40039062 C-911.82756476 594.98426992 -916.79042342 598.70374801 -921.75 602.4375 C-936.65369711 613.65450053 -951.69000938 624.68107154 -966.82861328 635.57861328 C-969.82464805 637.73641318 -972.81770151 639.89832641 -975.81054688 642.06054688 C-978.05955308 643.68537096 -980.3090727 645.30948255 -982.55859375 646.93359375 C-985.57342519 649.11079023 -988.58624694 651.29072917 -991.59765625 653.47265625 C-1001.69913418 660.78800764 -1011.85316627 668.02348773 -1022.0625 675.1875 C-1022.82755859 675.72455566 -1023.59261719 676.26161133 -1024.38085938 676.81494141 C-1030.26938801 680.94679801 -1036.16466216 685.06894537 -1042.0625 689.1875 C-1043.03155273 689.86458008 -1044.00060547 690.54166016 -1044.99902344 691.23925781 C-1048.01911307 693.34854224 -1051.04060292 695.45580604 -1054.0625 697.5625 C-1054.98111816 698.20413086 -1055.89973633 698.84576172 -1056.84619141 699.50683594 C-1063.52563829 704.15831486 -1070.28161505 708.68560733 -1077.0625 713.1875 C-1079.40735331 714.75225685 -1081.7504742 716.31960088 -1084.09375 717.88671875 C-1104.58660826 731.58141182 -1125.16837373 745.11021524 -1146.0625 758.1875 C-1146.86703613 758.69216797 -1147.67157227 759.19683594 -1148.50048828 759.71679688 C-1179.70456103 779.26633643 -1211.54370762 797.91206458 -1244.0625 815.1875 C-1244.95340332 815.661875 -1245.84430664 816.13625 -1246.76220703 816.625 C-1253.49980374 820.20314467 -1260.27467772 823.70573956 -1267.0625 827.1875 C-1268.34801649 827.85003029 -1269.6334966 828.51263117 -1270.91894531 829.17529297 C-1343.77974351 866.66754762 -1421.19998098 896.32858467 -1526.8125 912.375 C-1528.05249756 912.5299292 -1529.29249512 912.6848584 -1530.57006836 912.84448242 C-1534.73073254 913.33692106 -1538.89285326 913.77911646 -1543.0625 914.1875 C-1543.95315155 914.27543823 -1544.8438031 914.36337646 -1545.76144409 914.45397949 C-1564.884066 916.27963739 -1583.93561645 916.58898942 -1603.125 916.5625 C-1604.28186687 916.56214123 -1604.28186687 916.56214123 -1605.4621048 916.56177521 C-1687.32332656 916.52978319 -1767.28463559 902.55868614 -1845.0625 877.1875 C-1845.82802185 876.93848938 -1846.5935437 876.68947876 -1847.38226318 876.43292236 C-1891.97571123 861.89863324 -1935.12789015 843.89784644 -1977.1661377 823.12298584 C-1979.13096524 822.15372573 -1981.09792855 821.18891816 -1983.06542969 820.22509766 C-1999.46699568 812.18559569 -2015.62780754 803.89569938 -2031.42724609 794.71240234 C-2034.05266595 793.19319052 -2036.68973246 791.69666582 -2039.33203125 790.20703125 C-2062.93913001 776.8852378 -2085.58972105 762.35276935 -2108.05761719 747.21191406 C-2110.05598774 745.86559552 -2112.05761124 744.52409251 -2114.0625 743.1875 C-2114.35982631 740.10857178 -2114.45868966 737.23055742 -2114.43164349 734.14882469 C-2114.43510502 733.19596262 -2114.43856655 732.24310055 -2114.44213298 731.26136386 C-2114.45014589 728.0318669 -2114.4365554 724.80280843 -2114.42326355 721.57333374 C-2114.42457037 719.24934395 -2114.4271945 716.92535458 -2114.43103105 714.60136759 C-2114.43706386 708.86081195 -2114.42906027 703.12039268 -2114.41530902 697.37985312 C-2114.39963481 690.5075383 -2114.40133919 683.63525674 -2114.40374239 676.76292841 C-2114.40768931 664.07884391 -2114.39764015 651.3948062 -2114.37969017 638.71073532 C-2114.36195583 626.14691309 -2114.35039572 613.58311033 -2114.34713173 601.01927567 C-2114.34692551 600.23889991 -2114.34671929 599.45852415 -2114.34650682 598.65450064 C-2114.34549186 594.69157329 -2114.3445877 590.72864592 -2114.3437262 586.76571853 C-2114.33742034 558.67615585 -2114.31719538 530.58661864 -2114.28881836 502.49707031 C-2114.26127751 475.20377742 -2114.24002058 447.9104915 -2114.22729492 420.6171875 C-2114.22690034 419.77629707 -2114.22650576 418.93540665 -2114.22609923 418.06903469 C-2114.22214376 409.62467983 -2114.21831631 401.18032491 -2114.21458265 392.73596994 C-2114.20697345 375.53293345 -2114.19850969 358.32989741 -2114.18952942 341.12686157 C-2114.18911755 340.33584589 -2114.18870568 339.5448302 -2114.18828133 338.72984435 C-2114.16066648 285.88238552 -2114.11306712 233.03494125 -2114.0625 180.1875 C-2113.0725 180.1875 -2112.0825 180.1875 -2111.0625 180.1875 C-2109.37617046 182.70177472 -2107.89444126 185.16876572 -2106.4375 187.8125 C-2105.54668844 189.3802824 -2104.65341763 190.94666976 -2103.7578125 192.51171875 C-2103.30825195 193.29981934 -2102.85869141 194.08791992 -2102.39550781 194.89990234 C-2100.46775814 198.20814674 -2098.40654755 201.42030237 -2096.3125 204.625 C-2093.67517642 208.6880599 -2091.04383432 212.75243947 -2088.5 216.875 C-2088.02433594 217.64199219 -2087.54867187 218.40898437 -2087.05859375 219.19921875 C-2086.0625 221.1875 -2086.0625 221.1875 -2086.0625 224.1875 C-2085.4025 224.1875 -2084.7425 224.1875 -2084.0625 224.1875 C-2082.44668708 226.30717884 -2080.95863786 228.42400767 -2079.4921875 230.64453125 C-2079.0510965 231.30329758 -2078.61000549 231.9620639 -2078.1555481 232.64079285 C-2077.22252168 234.03828713 -2076.29300254 235.4381283 -2075.36669922 236.84008789 C-2073.94610166 238.98700054 -2072.51107246 241.12370883 -2071.07421875 243.25976562 C-2070.17098672 244.6165966 -2069.26861413 245.97400017 -2068.3671875 247.33203125 C-2067.93598602 247.97276077 -2067.50478455 248.6134903 -2067.06051636 249.27363586 C-2064.0625 253.84262383 -2064.0625 253.84262383 -2064.0625 257.1875 C-2063.0725 257.5175 -2062.0825 257.8475 -2061.0625 258.1875 C-2059.80859375 259.76171875 -2059.80859375 259.76171875 -2058.5 261.875 C-2055.80052338 266.08914554 -2052.97711473 270.18355039 -2050.0625 274.25 C-2049.41680054 275.15492188 -2049.41680054 275.15492188 -2048.75805664 276.078125 C-2045.94260153 280.00871275 -2043.05052905 283.86539751 -2040.0234375 287.63671875 C-2039.0625 289.1875 -2039.0625 289.1875 -2039.0625 292.1875 C-2038.0725 292.5175 -2037.0825 292.8475 -2036.0625 293.1875 C-2036.0625 294.1775 -2036.0625 295.1675 -2036.0625 296.1875 C-2035.0725 296.5175 -2034.0825 296.8475 -2033.0625 297.1875 C-2033.0625 298.1775 -2033.0625 299.1675 -2033.0625 300.1875 C-2032.0725 300.5175 -2031.0825 300.8475 -2030.0625 301.1875 C-2028.23046875 303.19140625 -2028.23046875 303.19140625 -2026.25 305.75 C-2025.54101562 306.66007812 -2024.83203125 307.57015625 -2024.1015625 308.5078125 C-2022.42995702 310.70459671 -2020.77092417 312.9089792 -2019.125 315.125 C-2014.50557792 321.34249243 -2009.51915027 327.28178463 -2004.51953125 333.1953125 C-2003.30330078 334.64550781 -2003.30330078 334.64550781 -2002.0625 336.125 C-2001.32 337.00027344 -2000.5775 337.87554688 -1999.8125 338.77734375 C-1998.14543991 341.07327249 -1997.63510763 342.4811755 -1997.0625 345.1875 C-1995.14583333 346.35416667 -1995.14583333 346.35416667 -1993.0625 347.1875 C-1991.0625 349.1875 -1991.0625 349.1875 -1991.0625 352.1875 C-1990.1653125 352.5896875 -1990.1653125 352.5896875 -1989.25 353 C-1987.04430967 354.19737475 -1985.62666813 355.23228984 -1984.0625 357.1875 C-1984.0625 358.1775 -1984.0625 359.1675 -1984.0625 360.1875 C-1983.485 360.414375 -1982.9075 360.64125 -1982.3125 360.875 C-1979.46658619 362.53511639 -1978.06408079 364.57937957 -1976.0625 367.1875 C-1973.52899327 369.78596845 -1970.93763819 372.30668627 -1968.3125 374.8125 C-1966.0625 377.1875 -1966.0625 377.1875 -1965.0625 380.1875 C-1963.48699197 381.79106226 -1963.48699197 381.79106226 -1961.52734375 383.3581543 C-1957.01277069 387.19126224 -1952.81442321 391.2740448 -1948.625 395.45703125 C-1947.85945801 396.21924484 -1947.09391602 396.98145844 -1946.30517578 397.76676941 C-1944.70393771 399.36298212 -1943.10401757 400.96051792 -1941.50537109 402.55932617 C-1939.04674406 405.01574177 -1936.58019604 407.4640204 -1934.11328125 409.91210938 C-1932.55419956 411.46826129 -1930.99558843 413.02488484 -1929.4375 414.58203125 C-1928.69701416 415.31533157 -1927.95652832 416.0486319 -1927.19360352 416.80415344 C-1926.51869873 417.48213486 -1925.84379395 418.16011627 -1925.1484375 418.85864258 C-1924.5507959 419.45485916 -1923.9531543 420.05107574 -1923.33740234 420.6653595 C-1922.0625 422.1875 -1922.0625 422.1875 -1922.0625 424.1875 C-1921.20398437 424.31318359 -1921.20398437 424.31318359 -1920.328125 424.44140625 C-1917.39219027 425.40823993 -1915.96281688 426.92291623 -1913.8125 429.125 C-1913.10609375 429.83527344 -1912.3996875 430.54554688 -1911.671875 431.27734375 C-1910.0625 433.1875 -1910.0625 433.1875 -1910.0625 435.1875 C-1909.485 435.27 -1908.9075 435.3525 -1908.3125 435.4375 C-1905.4085664 436.40547787 -1904.02509396 437.87444284 -1902.0625 440.1875 C-1902.0625 440.8475 -1902.0625 441.5075 -1902.0625 442.1875 C-1901.22525391 442.30158203 -1901.22525391 442.30158203 -1900.37109375 442.41796875 C-1897.24258315 443.46080562 -1895.518412 445.24672615 -1893.125 447.5 C-1890.55451621 449.90362086 -1888.03626518 452.20769463 -1885.24609375 454.35546875 C-1884.52550781 454.96003906 -1883.80492187 455.56460937 -1883.0625 456.1875 C-1883.0625 456.8475 -1883.0625 457.5075 -1883.0625 458.1875 C-1882.52625 458.249375 -1881.99 458.31125 -1881.4375 458.375 C-1877.89223843 459.58785264 -1875.8032608 461.63360926 -1873.0625 464.1875 C-1873.0625 464.8475 -1873.0625 465.5075 -1873.0625 466.1875 C-1872.20144653 466.34351685 -1872.20144653 466.34351685 -1871.32299805 466.50268555 C-1868.68093957 467.30309315 -1867.07818195 468.45981631 -1864.89453125 470.14453125 C-1864.09289551 470.75627197 -1863.29125977 471.3680127 -1862.46533203 471.99829102 C-1861.61052246 472.65885498 -1860.75571289 473.31941895 -1859.875 474 C-1858.05727326 475.38189848 -1856.23824347 476.7620845 -1854.41796875 478.140625 C-1853.51095215 478.82833984 -1852.60393555 479.51605469 -1851.66943359 480.22460938 C-1838.28972104 490.29886381 -1824.27276699 499.33754034 -1810.0625 508.1875 C-1809.39573242 508.60596191 -1808.72896484 509.02442383 -1808.04199219 509.45556641 C-1787.06037474 522.58757711 -1764.73478875 534.25028408 -1742.0625 544.1875 C-1740.99902344 544.65800781 -1739.93554688 545.12851562 -1738.83984375 545.61328125 C-1730.64916083 549.18689375 -1722.3630167 552.39816571 -1713.97827148 555.48193359 C-1709.03248016 557.30343696 -1704.10956912 559.14494906 -1699.25 561.1875 C-1695.04583892 562.87423733 -1690.85390012 564.13091436 -1686.47265625 565.265625 C-1680.93525955 566.76256157 -1675.45611345 568.45375146 -1669.96728516 570.11865234 C-1668.7169751 570.49691162 -1668.7169751 570.49691162 -1667.44140625 570.8828125 C-1666.32100952 571.2233667 -1666.32100952 571.2233667 -1665.17797852 571.57080078 C-1663.14779279 572.16263565 -1661.11753457 572.68912476 -1659.0625 573.1875 C-1657.55925171 573.55391602 -1657.55925171 573.55391602 -1656.02563477 573.92773438 C-1652.89902707 574.6854897 -1649.77227269 575.44263289 -1646.64526367 576.19873047 C-1645.30011253 576.52416764 -1643.95506007 576.85001299 -1642.61010742 577.17626953 C-1640.65827151 577.64971694 -1638.70609256 578.12174947 -1636.75390625 578.59375 C-1635.59060791 578.87541016 -1634.42730957 579.15707031 -1633.22875977 579.44726562 C-1630.51358348 580.08204198 -1627.80003436 580.65952348 -1625.0625 581.1875 C-1615.0625 583.1875 -1615.0625 583.1875 -1612.82250977 583.65087891 C-1553.03588892 595.27502686 -1490.19421286 595.96313812 -1430.0625 586.73828125 C-1427.02350517 586.28146154 -1424.13845298 586.16079902 -1421.0625 586.1875 C-1417.35302436 585.56330939 -1413.71820842 584.63193966 -1410.0625 583.75 C-1404.44305235 582.44197038 -1398.83477762 581.48612259 -1393.12890625 580.6484375 C-1390.34474571 580.22992674 -1387.57903842 579.77166567 -1384.8125 579.25 C-1384.10609375 579.11722656 -1383.3996875 578.98445312 -1382.671875 578.84765625 C-1380.44905902 578.28529712 -1378.35586155 577.61791036 -1376.19140625 576.87109375 C-1370.28053096 574.86646714 -1364.25867135 573.29773514 -1358.2253418 571.70800781 C-1356.26338581 571.1910272 -1354.30250862 570.67011503 -1352.34179688 570.1484375 C-1346.44420669 568.58529271 -1340.54428895 567.0562691 -1334.61328125 565.625 C-1330.64409888 564.6419023 -1326.88907109 563.46672248 -1323.09179688 561.95996094 C-1318.90539678 560.36638901 -1314.59036886 559.13540027 -1310.3125 557.8125 C-1303.35283706 555.63319422 -1296.59316731 553.31215302 -1289.9140625 550.3671875 C-1286.49942488 548.9545566 -1283.0154803 547.81625564 -1279.5 546.6875 C-1274.1291264 544.95489445 -1269.00034013 542.95640418 -1263.91796875 540.49609375 C-1260.56277125 538.95848614 -1257.1493754 537.61159992 -1253.71899414 536.25170898 C-1212.1670781 519.60573876 -1171.60458653 499.65443145 -1132.55859375 477.80102539 C-1127.83985039 475.16233656 -1123.09266666 472.58801204 -1118.3125 470.0625 C-1109.14898068 465.20594252 -1100.18586553 460.01583883 -1091.234375 454.78125 C-1090.18822021 454.16975098 -1089.14206543 453.55825195 -1088.06420898 452.92822266 C-1085.99235016 451.71616225 -1083.92149074 450.50239128 -1081.85180664 449.28662109 C-1077.10609934 446.50728917 -1072.34551082 443.77655441 -1067.5078125 441.16015625 C-1061.96360703 438.1595876 -1056.53998569 434.97665268 -1051.125 431.75 C-1049.1889289 430.60134872 -1047.25273218 429.45290915 -1045.31640625 428.3046875 C-1044.40391113 427.76295898 -1043.49141602 427.22123047 -1042.55126953 426.66308594 C-1035.63486187 422.56236317 -1028.67836132 418.53495414 -1021.6875 414.5625 C-1012.77815058 409.49017868 -1003.96977324 404.24662489 -995.15185547 399.01757812 C-991.97961135 397.13839827 -988.80453482 395.26407909 -985.62890625 393.390625 C-972.59671728 385.6952726 -959.61686846 377.92250332 -946.70068359 370.03417969 C-940.41501461 366.20065847 -934.09932122 362.42967212 -927.72875977 358.73876953 C-923.47965686 356.26657835 -919.27241597 353.72563262 -915.0625 351.1875 C-913.39606385 350.18711591 -911.72939572 349.18711815 -910.0625 348.1875 C-908.88699585 347.48197998 -908.88699585 347.48197998 -907.68774414 346.76220703 C-906.07147326 345.79271506 -904.45471728 344.8240306 -902.8371582 343.85668945 C-898.2057961 341.08479574 -893.58739289 338.29280587 -888.98046875 335.48046875 C-876.30676692 327.74633843 -863.58414996 320.11221595 -850.75704956 312.6350708 C-840.35515004 306.56848117 -830.04765148 300.3570702 -819.7668457 294.08789062 C-812.13455265 289.43511089 -804.46367322 284.85725679 -796.74609375 280.34765625 C-793.24984607 278.30357056 -789.77970636 276.21803293 -786.3125 274.125 C-778.13070412 269.19005752 -769.87541954 264.37981206 -761.62786865 259.55596924 C-754.54027331 255.41022468 -747.46125029 251.25340763 -740.4375 247 C-735.70828682 244.14503721 -730.9257763 241.45062072 -726.05859375 238.83984375 C-722.24511883 236.73671482 -718.49853296 234.52878895 -714.75 232.3125 C-704.12074566 226.03317539 -693.44675827 219.87943862 -682.52685547 214.11669922 C-678.64953377 212.06162801 -674.84107726 209.92121658 -671.0625 207.6875 C-666.13035327 204.77424533 -661.11407414 202.05012246 -656.04858398 199.37890625 C-651.02990532 196.72490083 -646.07496076 193.96715845 -641.125 191.1875 C-634.95757897 187.73324843 -628.73008943 184.4768561 -622.38305664 181.3671875 C-615.63601815 178.03376522 -609.05424301 174.40655925 -602.47753906 170.75048828 C-595.16019956 166.70741796 -587.70744212 162.97210872 -580.21929932 159.25946045 C-576.5713299 157.4463669 -572.93273381 155.61464727 -569.29296875 153.78515625 C-549.76206175 143.98116494 -530.20397019 134.34402978 -510.25341797 125.41748047 C-505.37785855 123.23583218 -500.52304782 121.01898782 -495.6875 118.75 C-474.7491597 108.93798555 -453.58244734 99.73067079 -432.25 90.8125 C-431.25371582 90.39548828 -430.25743164 89.97847656 -429.23095703 89.54882812 C-423.87659276 87.31943414 -418.50242343 85.1985513 -413.0625 83.1875 C-411.55988421 82.58986872 -410.05947019 81.98663521 -408.5625 81.375 C-404.13161634 79.58901305 -399.66569585 77.91232064 -395.1875 76.25 C-389.29832703 74.06249404 -383.48410599 71.74692951 -377.7109375 69.265625 C-373.37206962 67.4993602 -368.94427746 66.13720743 -364.4375 64.875 C-360.67208868 63.75770461 -357.12045097 62.40512445 -353.51953125 60.83984375 C-347.24397157 58.19595585 -340.87504809 56.07906918 -334.375 54.0625 C-332.2459456 53.39370062 -330.1170367 52.72443783 -327.98828125 52.0546875 C-326.97846191 51.73854492 -325.96864258 51.42240234 -324.92822266 51.09667969 C-322.35298153 50.27965822 -319.7902739 49.43423996 -317.23046875 48.5703125 C-311.60817408 46.68373439 -305.92587495 45.13001952 -300.16308594 43.74145508 C-293.95965191 42.24558628 -287.98671311 40.57997068 -282.0625 38.1875 C-279.15234653 37.38675962 -276.21388561 36.8147719 -273.25 36.25 C-269.11202011 35.43329344 -265.11379541 34.36605866 -261.0625 33.1875 C-259.56467459 32.84452746 -258.06449859 32.5117088 -256.5625 32.1875 C-253.93709904 31.61925046 -251.39710968 30.99556048 -248.8125 30.25 C-239.94554085 27.73769491 -230.89042471 25.92087228 -221.87890625 24.0078125 C-218.30665806 23.23998024 -214.73998572 22.45095292 -211.17431641 21.65332031 C-191.73678862 17.30529363 -191.73678862 17.30529363 -183.20703125 16.46875 C-181.10843053 16.19352368 -179.16533433 15.7435831 -177.125 15.1875 C-173.2852808 14.1513853 -169.51708267 13.80633633 -165.5625 13.46875 C-163.17990932 13.20070855 -160.95273886 12.75280801 -158.625 12.1875 C-154.39101851 11.17551145 -150.22789465 10.80814629 -145.89453125 10.46875 C-142.16811473 10.09867829 -138.53382929 9.41818452 -134.86328125 8.6875 C-109.41233728 4.14395631 -82.83812842 2.58243983 -57.0625 1.1875 C-56.34788605 1.14513214 -55.63327209 1.10276428 -54.89700317 1.05911255 C-36.60674336 -0.01341206 -18.31440054 -0.01370413 0 0 Z " fill="#7169D5" transform="translate(2114.0625,258.8125)"/>
<path d="M0 0 C1.40099112 -0.00702229 2.80198192 -0.01410911 4.20297241 -0.02125549 C8.66656952 -0.04069152 13.13011486 -0.04569111 17.59375 -0.046875 C18.35501442 -0.04731686 19.11627884 -0.04775871 19.90061188 -0.04821396 C43.00734687 -0.05524676 65.9538078 0.25368968 88.92974854 2.94989014 C91.19505846 3.21498028 93.46140855 3.46950512 95.72802734 3.72314453 C171.82171088 12.34345984 247.46031185 32.72015816 318.09375 62.203125 C319.23714844 62.67862793 320.38054688 63.15413086 321.55859375 63.64404297 C359.12595263 79.36740224 395.80579928 97.193959 431.11328125 117.4921875 C434.22687164 119.27954345 437.34746764 121.05424023 440.46875 122.828125 C455.24736906 131.25571141 469.74914396 140.05750406 484.09375 149.203125 C484.83818359 149.67637207 485.58261719 150.14961914 486.34960938 150.63720703 C542.8211905 186.60390915 597.50169094 226.14405498 649.3371582 268.52026367 C654.10600268 272.41578046 658.92980413 276.23349202 663.78369141 280.0222168 C669.16849524 284.23664529 674.47233727 288.54837718 679.765625 292.87695312 C680.40242188 293.39708984 681.03921875 293.91722656 681.6953125 294.453125 C682.25557129 294.91203125 682.81583008 295.3709375 683.39306641 295.84375 C685.08435188 297.27479485 685.08435188 297.27479485 687.1699791 298.34556293 C689.09375 300.203125 689.09375 300.203125 689.58594131 303.33654308 C689.58225414 304.63903657 689.57856697 305.94153006 689.57476807 307.28349304 C689.57818577 308.00884508 689.58160347 308.73419713 689.58512473 309.48152953 C689.59172769 311.91866765 689.56968908 314.35471096 689.54785156 316.79174805 C689.5467236 318.53601048 689.54735594 320.28027481 689.54962158 322.02453613 C689.55077166 326.76610835 689.52721489 331.50727777 689.49932575 336.24875617 C689.47436099 341.20152746 689.47197399 346.15430746 689.46722412 351.10713196 C689.45477984 360.48881108 689.42193859 369.87030428 689.38182616 379.25190145 C689.33715362 389.93130629 689.31513279 400.61071989 689.29504442 411.29019487 C689.25320722 433.26127544 689.18282696 455.23218852 689.09375 477.203125 C687.33696286 477.05140406 685.58037242 476.8974044 683.8238678 476.7424469 C682.35653497 476.61417684 682.35653497 476.61417684 680.85955906 476.48331547 C674.98640016 475.88833472 669.27638774 474.45841957 663.53125 473.140625 C662.85900391 472.98695465 662.18675781 472.8332843 661.49414062 472.67495728 C619.06686029 462.91975688 584.38144664 446.17111063 551.09375 418.203125 C549.26241125 416.70069048 547.42903416 415.20073749 545.59375 413.703125 C544.68367188 412.95804688 543.77359375 412.21296875 542.8359375 411.4453125 C541.03050589 409.9690764 539.22325859 408.49505764 537.4140625 407.0234375 C532.43147833 402.9651588 527.49158092 398.86289701 522.59375 394.703125 C517.82096001 390.65008567 513.00809163 386.65288284 508.15234375 382.69921875 C505.12020597 380.2247155 502.09919401 377.73722977 499.08032227 375.24658203 C481.95567388 361.11994901 464.69870636 347.19894391 447.06396484 333.71240234 C444.77536693 331.95922858 442.49147692 330.19998681 440.20703125 328.44140625 C430.05326281 320.64328959 419.80972911 313.03291266 409.29199219 305.73339844 C406.93025241 304.0893086 404.57778732 302.43252687 402.2265625 300.7734375 C391.2985261 293.07024114 380.28464771 285.51949011 369.09375 278.203125 C368.20187988 277.61869629 367.31000977 277.03426758 366.39111328 276.43212891 C332.54772356 254.32312016 297.47243858 234.24827717 261.45166016 215.91357422 C258.42635955 214.37254935 255.40621688 212.82188015 252.38671875 211.26953125 C174.78319895 171.63812846 85.25278405 139.0388525 -4.90625 133.203125 C-6.18072998 133.11853027 -6.18072998 133.11853027 -7.48095703 133.03222656 C-69.81425615 129.00457313 -130.14450748 137.89704744 -189.90625 155.203125 C-190.59720764 155.40315125 -191.28816528 155.60317749 -192.00006104 155.80926514 C-257.00723217 174.71573324 -320.18046225 202.65340836 -379.20751953 235.69335938 C-382.14274132 237.33542664 -385.08483167 238.9647856 -388.02734375 240.59375 C-399.81344688 247.1362473 -411.48841859 253.84134906 -423.0703125 260.73828125 C-427.28247112 263.245657 -431.5078069 265.72960704 -435.7421875 268.19921875 C-451.47465851 277.37754218 -467.09792427 286.71699779 -482.64160156 296.21142578 C-485.73434621 298.0982498 -488.83104181 299.97835529 -491.9296875 301.85546875 C-504.6443865 309.56186791 -517.27389482 317.39734098 -529.86816406 325.29882812 C-533.96305474 327.86553877 -538.06303211 330.42406679 -542.1628418 332.98291016 C-553.43419579 340.01928949 -564.68426639 347.08828376 -575.90625 354.203125 C-577.20876709 355.02828613 -577.20876709 355.02828613 -578.53759766 355.87011719 C-591.71974161 364.2246985 -604.84107726 372.66691231 -617.90625 381.203125 C-619.47294434 382.2250293 -619.47294434 382.2250293 -621.07128906 383.26757812 C-656.63960497 406.46796203 -692.0123288 429.9977282 -726.90625 454.203125 C-727.74994141 454.78835938 -728.59363281 455.37359375 -729.46289062 455.9765625 C-742.96842615 465.35043942 -756.45071749 474.75761324 -769.90625 484.203125 C-770.64037109 484.7182666 -771.37449219 485.2334082 -772.13085938 485.76416016 C-782.36080102 492.94771927 -792.51775223 500.22780286 -802.64013672 507.56201172 C-805.6443758 509.73767376 -808.65150773 511.90931519 -811.65893555 514.08056641 C-813.15671726 515.16196317 -814.65427604 516.24366877 -816.15161133 517.32568359 C-819.92334262 520.05110064 -823.69754742 522.77297101 -827.4765625 525.48828125 C-835.31270342 531.12362652 -843.10215907 536.81035094 -850.80834961 542.62231445 C-855.87385356 546.44025537 -860.97859931 550.20204959 -866.09375 553.953125 C-873.88310565 559.67248726 -881.58586849 565.49902669 -889.26245117 571.36865234 C-894.62287184 575.46688818 -900.00125285 579.53887835 -905.40625 583.578125 C-912.28841877 588.72431301 -919.10573773 593.94972927 -925.90625 599.203125 C-927.96857031 600.78669238 -930.0310739 602.37002109 -932.09375 603.953125 C-945.09826561 613.95029642 -958.01931134 624.05503806 -970.90625 634.203125 C-980.00424891 641.36753281 -989.12733744 648.49863758 -998.2734375 655.6015625 C-1001.30382725 657.95542378 -1004.32973908 660.31484027 -1007.3515625 662.6796875 C-1017.5924343 670.68651617 -1027.94663267 678.52937377 -1038.36523438 686.30322266 C-1040.90936847 688.20545666 -1043.44774963 690.11511096 -1045.984375 692.02734375 C-1061.64197241 703.82534416 -1077.51296331 715.30692918 -1093.56591797 726.56054688 C-1095.18621396 727.69776275 -1096.80492563 728.83723806 -1098.42236328 729.97851562 C-1168.3469696 779.30667742 -1243.19325088 823.76634763 -1390.90625 883.203125 C-1391.60669434 883.4446228 -1392.30713867 883.68612061 -1393.02880859 883.93493652 C-1476.99532037 912.7892567 -1565.22027891 927.78052667 -1674.71514893 935.1031189 C-1676.25017491 935.17318046 -1677.78495722 935.24869492 -1679.31951904 935.32827759 C-1700.83349384 936.44058682 -1722.35702374 936.39060217 -1743.89355469 936.38842773 C-1748.11983579 936.38834709 -1752.34600705 936.39520458 -1756.57226562 936.40893555 C-1793.98433785 936.52838494 -1831.30468795 935.60715772 -1868.59375 932.390625 C-1869.5938913 932.30631226 -1870.59403259 932.22199951 -1871.6244812 932.13513184 C-1946.63372575 925.77852786 -2021.12702244 912.09602657 -2092.90625 889.203125 C-2093.92664368 888.87825104 -2093.92664368 888.87825104 -2094.96765137 888.54681396 C-2136.68130443 875.23529696 -2177.13117738 859.31288316 -2216.76220703 840.68115234 C-2218.82405851 839.71186761 -2220.88748641 838.74592765 -2222.95263672 837.78369141 C-2249.68203337 825.31806097 -2275.61248248 811.36324148 -2300.90625 796.203125 C-2301.70617371 795.9809559 -2302.50609741 795.75878679 -2303.33026123 795.52988529 C-2306.81862958 794.22686642 -2308.52092803 793.10169916 -2310.90625 790.203125 C-2312.97141748 782.91314467 -2312.16463246 774.79859621 -2312.04150391 767.30712891 C-2312.03868304 764.92203897 -2312.04026675 762.53694035 -2312.04592896 760.15185547 C-2312.0485025 754.34869484 -2312.00515746 748.54718667 -2311.94155236 742.74440368 C-2311.87000842 735.99126663 -2311.85509605 729.23836305 -2311.84367065 722.48490004 C-2311.82179711 710.44189575 -2311.75528412 698.39956971 -2311.66064453 686.35693359 C-2311.56882022 674.66035348 -2311.49805328 662.96395774 -2311.45556641 651.26708984 C-2311.45293917 650.54581325 -2311.45031194 649.82453667 -2311.44760509 649.08140321 C-2311.43455449 645.46288293 -2311.42191746 641.84436135 -2311.40948606 638.2258389 C-2311.30585877 608.21779241 -2311.12901908 578.2105381 -2310.90625 548.203125 C-2309.79545937 549.15142279 -2308.68521415 550.10035946 -2307.57519531 551.04956055 C-2306.95686829 551.57793015 -2306.33854126 552.10629974 -2305.70147705 552.65068054 C-2303.30598428 554.72221209 -2300.98118066 556.86542073 -2298.65625 559.015625 C-2294.09317736 563.18543694 -2289.38841896 567.11660526 -2284.578125 570.99609375 C-2282.0076595 573.11935838 -2279.54705637 575.32124349 -2277.09375 577.578125 C-2272.7184541 581.56067781 -2268.15895734 585.2213057 -2263.48754883 588.84423828 C-2259.69112785 591.79088046 -2255.94815563 594.79106449 -2252.23730469 597.84472656 C-2243.1378377 605.32691434 -2233.7827689 612.43413119 -2224.30566406 619.43017578 C-2222.16427339 621.01246914 -2220.03091176 622.60495057 -2217.8984375 624.19921875 C-2187.74095673 646.53726357 -2155.70532305 666.99706746 -2122.90625 685.203125 C-2122.02259766 685.69377441 -2121.13894531 686.18442383 -2120.22851562 686.68994141 C-2039.16697986 731.55391234 -1953.04813901 765.1680285 -1583.90625 792.203125 C-1582.97675537 792.12040344 -1582.04726074 792.03768188 -1581.08959961 791.95245361 C-1483.59081715 783.19282944 -1387.25920557 764.57458025 -1143.90625 675.203125 C-1142.8529248 674.71102539 -1141.79959961 674.21892578 -1140.71435547 673.71191406 C-1113.29050448 660.84596281 -1085.89159678 647.50563748 -1059.48632812 632.65136719 C-1056.65937718 631.06455104 -1053.82243107 629.49654997 -1050.984375 627.9296875 C-1035.44352578 619.32368742 -1020.1335717 610.35099302 -1004.90625 601.203125 C-1003.89256348 600.59436523 -1002.87887695 599.98560547 -1001.83447266 599.35839844 C-995.16729868 595.34604164 -988.52537934 591.29424867 -981.90625 587.203125 C-981.09671875 586.70296875 -980.2871875 586.2028125 -979.453125 585.6875 C-965.68100681 577.13618478 -952.20694756 568.129801 -938.71875 559.140625 C-937.38896622 558.2546463 -937.38896622 558.2546463 -936.03231812 557.35076904 C-893.10227326 528.72875336 -851.45504505 498.45994796 -810.453125 467.14746094 C-808.06368242 465.3233121 -805.67270025 463.50120302 -803.28125 461.6796875 C-794.99942252 455.36659726 -786.77106093 448.99174044 -778.59912109 442.53710938 C-776.89894685 441.19737011 -775.19436952 439.86344774 -773.48828125 438.53125 C-766.55484793 433.11294026 -759.69590852 427.61213228 -752.87866211 422.04833984 C-748.48626447 418.46950683 -744.05794047 414.94190988 -739.59375 411.453125 C-733.62631252 406.78847915 -727.75119273 402.02067012 -721.90625 397.203125 C-720.07349924 395.70241325 -718.24016105 394.20241862 -716.40625 392.703125 C-715.045 391.589375 -715.045 391.589375 -713.65625 390.453125 C-703.57291667 382.203125 -693.48958333 373.953125 -683.40625 365.703125 C-682.03339844 364.57970703 -682.03339844 364.57970703 -680.6328125 363.43359375 C-678.87807216 361.99812565 -677.12289845 360.56318704 -675.3671875 359.12890625 C-667.60375307 352.78446814 -659.86547458 346.40965786 -652.12792969 340.03369141 C-648.5546295 337.08944912 -644.98040572 334.1463286 -641.40625 331.203125 C-639.98957863 330.03646404 -638.57291197 328.86979737 -637.15625 327.703125 C-634.32291667 325.36979167 -631.48958333 323.03645833 -628.65625 320.703125 C-627.9545166 320.12522217 -627.2527832 319.54731934 -626.52978516 318.9519043 C-625.11802011 317.7892838 -623.70623636 316.62668602 -622.29443359 315.46411133 C-618.67761578 312.48572741 -615.06115818 309.50690782 -611.4453125 306.52734375 C-603.61042324 300.07178786 -595.7676832 293.62634251 -587.90625 287.203125 C-587.06449219 286.51347656 -586.22273438 285.82382812 -585.35546875 285.11328125 C-579.30244542 280.15428584 -573.23588201 275.21216382 -567.15917969 270.28222656 C-563.74036173 267.50834751 -560.32569293 264.72977314 -556.921875 261.9375 C-549.47390936 255.83776983 -541.9346804 249.89272226 -534.26196289 244.078125 C-529.39749384 240.37906114 -524.63073554 236.57898421 -519.90625 232.703125 C-512.47616037 226.61567999 -504.88399027 220.76543523 -497.22802734 214.96582031 C-494.75775091 213.09038436 -492.29431996 211.20622189 -489.83203125 209.3203125 C-478.28535661 200.48256654 -466.65553559 191.76968638 -454.90625 183.203125 C-454.16310547 182.66091309 -453.41996094 182.11870117 -452.65429688 181.56005859 C-434.10472454 168.0454861 -415.26444392 154.97712206 -396.15625 142.265625 C-395.24248596 141.65716736 -394.32872192 141.04870972 -393.38726807 140.42181396 C-366.73497892 122.68711395 -339.57357326 105.91872138 -311.45410156 90.59472656 C-309.63058026 89.59874425 -307.80993503 88.59748902 -305.99121094 87.59277344 C-265.68611696 65.3507485 -223.56603116 46.82851525 -179.90625 32.203125 C-178.79572266 31.83026367 -177.68519531 31.45740234 -176.54101562 31.07324219 C-131.61172679 16.16993127 -85.5729756 7.11891707 -38.5625 2.1484375 C-37.7930304 2.06649643 -37.02356079 1.98455536 -36.23077393 1.90013123 C-24.1541093 0.66269709 -12.13960679 0.0412218 0 0 Z " fill="#261CA1" transform="translate(2310.90625,473.796875)"/>
</svg>
